<svg xmlns="http://www.w3.org/2000/svg" xmlns:xlink="http://www.w3.org/1999/xlink" width="500" zoomAndPan="magnify" viewBox="0 0 375 374.999991" height="500" preserveAspectRatio="xMidYMid meet" version="1.0"><defs><clipPath id="7e9540aec9"><path d="M 126 123 L 351 123 L 351 339 L 126 339 Z M 126 123 " clip-rule="nonzero"/></clipPath><clipPath id="14187812d9"><path d="M 98.765625 2.128906 L 386.925781 242.109375 L 276.054688 375.238281 L -12.105469 135.257812 Z M 98.765625 2.128906 " clip-rule="nonzero"/></clipPath><clipPath id="30dd56bd5a"><path d="M 98.765625 2.128906 L 386.925781 242.109375 L 276.054688 375.238281 L -12.105469 135.257812 Z M 98.765625 2.128906 " clip-rule="nonzero"/></clipPath><clipPath id="05b273d84e"><path d="M 98.765625 2.128906 L 386.925781 242.109375 L 276.054688 375.238281 L -12.105469 135.257812 Z M 98.765625 2.128906 " clip-rule="nonzero"/></clipPath><clipPath id="6ad35b3aad"><path d="M 24 38 L 248 38 L 248 254 L 24 254 Z M 24 38 " clip-rule="nonzero"/></clipPath><clipPath id="e5cae1b776"><path d="M 98.765625 2.128906 L 386.925781 242.109375 L 276.054688 375.238281 L -12.105469 135.257812 Z M 98.765625 2.128906 " clip-rule="nonzero"/></clipPath><clipPath id="e0e6b4e48b"><path d="M 98.765625 2.128906 L 386.925781 242.109375 L 276.054688 375.238281 L -12.105469 135.257812 Z M 98.765625 2.128906 " clip-rule="nonzero"/></clipPath><clipPath id="aad8346bfc"><path d="M 98.765625 2.128906 L 386.925781 242.109375 L 276.054688 375.238281 L -12.105469 135.257812 Z M 98.765625 2.128906 " clip-rule="nonzero"/></clipPath><clipPath id="7a2124ad9b"><path d="M 126 36 L 349 36 L 349 253 L 126 253 Z M 126 36 " clip-rule="nonzero"/></clipPath><clipPath id="437998319d"><path d="M -11.925781 243.460938 L 273.296875 0 L 385.777344 131.773438 L 100.554688 375.234375 Z M -11.925781 243.460938 " clip-rule="nonzero"/></clipPath><clipPath id="ad84fc2d49"><path d="M 100.375 375.019531 L 385.59375 131.558594 L 273.113281 -0.214844 L -12.105469 243.25 Z M 100.375 375.019531 " clip-rule="nonzero"/></clipPath><clipPath id="2af0ac9ddb"><path d="M 100.375 375.019531 L 385.59375 131.558594 L 273.113281 -0.214844 L -12.105469 243.25 Z M 100.375 375.019531 " clip-rule="nonzero"/></clipPath><clipPath id="9de9f06db2"><path d="M 24 122 L 247 122 L 247 339 L 24 339 Z M 24 122 " clip-rule="nonzero"/></clipPath><clipPath id="4b06d62146"><path d="M -11.925781 243.460938 L 273.296875 0 L 385.777344 131.773438 L 100.554688 375.234375 Z M -11.925781 243.460938 " clip-rule="nonzero"/></clipPath><clipPath id="b4b07bce73"><path d="M 100.375 375.019531 L 385.59375 131.558594 L 273.113281 -0.214844 L -12.105469 243.25 Z M 100.375 375.019531 " clip-rule="nonzero"/></clipPath><clipPath id="49412f2aae"><path d="M 100.375 375.019531 L 385.59375 131.558594 L 273.113281 -0.214844 L -12.105469 243.25 Z M 100.375 375.019531 " clip-rule="nonzero"/></clipPath><clipPath id="93d31b75d3"><path d="M 15.972656 64 L 290 64 L 290 328 L 15.972656 328 Z M 15.972656 64 " clip-rule="nonzero"/></clipPath><clipPath id="9c8ebe5e81"><path d="M 201.1875 176.902344 C 201.1875 159.808594 215.4375 152.207031 226.832031 140.8125 C 232.53125 135.113281 232.53125 124.664062 226.832031 118.964844 L 199.289062 91.417969 C 193.589844 85.722656 183.140625 85.722656 177.441406 91.417969 L 149.898438 118.964844 C 139.449219 129.414062 132.800781 141.761719 126.152344 133.210938 C 123.304688 129.414062 121.402344 126.5625 121.402344 119.914062 C 121.402344 109.464844 129.953125 105.667969 136.601562 98.070312 C 140.398438 94.269531 140.398438 88.570312 136.601562 84.769531 L 119.503906 67.675781 C 115.703125 63.875 110.003906 63.875 106.207031 67.675781 L 89.109375 84.769531 C 85.308594 88.570312 85.308594 94.269531 89.109375 98.070312 C 95.757812 104.71875 105.257812 110.417969 105.257812 119.914062 C 105.257812 129.414062 95.757812 135.113281 89.109375 141.761719 C 85.308594 145.558594 85.308594 151.257812 89.109375 155.058594 L 106.207031 172.15625 C 110.003906 175.953125 115.703125 175.953125 119.503906 172.15625 C 133.75 157.90625 142.300781 134.160156 155.597656 145.558594 C 166.046875 154.109375 177.441406 163.605469 177.441406 176.902344 C 177.441406 193.050781 161.296875 202.550781 149.898438 213.949219 C 144.199219 219.644531 144.199219 230.09375 149.898438 235.792969 L 156.546875 242.441406 L 177.441406 263.339844 C 183.140625 269.039062 193.589844 269.039062 199.289062 263.339844 L 222.085938 240.542969 L 226.832031 235.792969 C 232.53125 230.09375 232.53125 219.644531 226.832031 213.949219 C 214.484375 201.601562 201.1875 194.949219 201.1875 176.902344 Z M 93.859375 205.398438 L 147.046875 152.207031 C 155.597656 158.859375 166.046875 168.355469 166.046875 176.902344 C 166.046875 188.300781 148.949219 199.699219 141.347656 207.296875 C 131.851562 216.796875 131.851562 232.945312 141.347656 243.390625 L 168.894531 270.9375 C 178.394531 280.433594 194.539062 280.433594 204.988281 270.9375 L 232.53125 243.390625 C 242.03125 233.894531 242.03125 217.746094 232.53125 207.296875 C 223.984375 198.75 209.738281 190.203125 209.738281 176.902344 C 209.738281 166.457031 219.234375 158.859375 227.785156 152.207031 L 280.972656 205.398438 C 292.371094 216.796875 292.371094 234.84375 280.972656 246.242188 L 207.835938 319.378906 C 196.441406 330.777344 178.394531 330.777344 166.996094 319.378906 L 93.859375 246.242188 C 82.460938 234.84375 82.460938 216.796875 93.859375 205.398438 Z M 37.816406 108.515625 L 48.265625 98.070312 C 51.117188 95.21875 51.117188 90.46875 48.265625 87.621094 L 37.816406 77.171875 C 34.96875 74.324219 30.21875 74.324219 27.371094 77.171875 L 16.921875 87.621094 C 14.074219 90.46875 14.074219 95.21875 16.921875 98.070312 L 27.371094 108.515625 C 30.21875 111.367188 34.96875 111.367188 37.816406 108.515625 Z M 37.816406 108.515625 " clip-rule="evenodd"/></clipPath><linearGradient x1="0.115" gradientTransform="matrix(0.000000000000005816, -94.98271, 94.98271, 0.000000000000005816, 15.972321, 328.876581)" y1="3.025" x2="2.965" gradientUnits="userSpaceOnUse" y2="0.175" id="94adbc87ad"><stop stop-opacity="1" stop-color="rgb(0%, 39.199829%, 60.398865%)" offset="0"/><stop stop-opacity="1" stop-color="rgb(0%, 39.199829%, 60.398865%)" offset="0.125"/><stop stop-opacity="1" stop-color="rgb(0%, 39.199829%, 60.398865%)" offset="0.15625"/><stop stop-opacity="1" stop-color="rgb(0%, 39.280701%, 60.450745%)" offset="0.171875"/><stop stop-opacity="1" stop-color="rgb(0%, 39.732361%, 60.746765%)" offset="0.175781"/><stop stop-opacity="1" stop-color="rgb(0%, 40.104675%, 60.98938%)" offset="0.179688"/><stop stop-opacity="1" stop-color="rgb(0%, 40.47699%, 61.230469%)" offset="0.183594"/><stop stop-opacity="1" stop-color="rgb(0%, 40.849304%, 61.473083%)" offset="0.1875"/><stop stop-opacity="1" stop-color="rgb(0%, 41.220093%, 61.715698%)" offset="0.191406"/><stop stop-opacity="1" stop-color="rgb(0%, 41.592407%, 61.958313%)" offset="0.195312"/><stop stop-opacity="1" stop-color="rgb(0%, 41.964722%, 62.199402%)" offset="0.199219"/><stop stop-opacity="1" stop-color="rgb(0%, 42.337036%, 62.442017%)" offset="0.203125"/><stop stop-opacity="1" stop-color="rgb(0%, 42.707825%, 62.684631%)" offset="0.207031"/><stop stop-opacity="1" stop-color="rgb(0%, 43.080139%, 62.927246%)" offset="0.210938"/><stop stop-opacity="1" stop-color="rgb(0%, 43.450928%, 63.168335%)" offset="0.214844"/><stop stop-opacity="1" stop-color="rgb(0%, 43.823242%, 63.41095%)" offset="0.21875"/><stop stop-opacity="1" stop-color="rgb(0%, 44.195557%, 63.653564%)" offset="0.222656"/><stop stop-opacity="1" stop-color="rgb(0%, 44.567871%, 63.896179%)" offset="0.226562"/><stop stop-opacity="1" stop-color="rgb(0%, 44.93866%, 64.137268%)" offset="0.230469"/><stop stop-opacity="1" stop-color="rgb(0%, 45.310974%, 64.379883%)" offset="0.234375"/><stop stop-opacity="1" stop-color="rgb(0%, 45.683289%, 64.622498%)" offset="0.238281"/><stop stop-opacity="1" stop-color="rgb(0%, 46.055603%, 64.865112%)" offset="0.242188"/><stop stop-opacity="1" stop-color="rgb(0%, 46.426392%, 65.106201%)" offset="0.246094"/><stop stop-opacity="1" stop-color="rgb(0%, 46.798706%, 65.348816%)" offset="0.25"/><stop stop-opacity="1" stop-color="rgb(0%, 47.171021%, 65.591431%)" offset="0.253906"/><stop stop-opacity="1" stop-color="rgb(0%, 47.543335%, 65.834045%)" offset="0.257812"/><stop stop-opacity="1" stop-color="rgb(0%, 47.914124%, 66.075134%)" offset="0.261719"/><stop stop-opacity="1" stop-color="rgb(0%, 48.286438%, 66.317749%)" offset="0.265625"/><stop stop-opacity="1" stop-color="rgb(0%, 48.658752%, 66.560364%)" offset="0.269531"/><stop stop-opacity="1" stop-color="rgb(0%, 49.031067%, 66.802979%)" offset="0.273438"/><stop stop-opacity="1" stop-color="rgb(0%, 49.401855%, 67.044067%)" offset="0.277344"/><stop stop-opacity="1" stop-color="rgb(0%, 49.77417%, 67.286682%)" offset="0.28125"/><stop stop-opacity="1" stop-color="rgb(0%, 50.146484%, 67.529297%)" offset="0.285156"/><stop stop-opacity="1" stop-color="rgb(0%, 50.518799%, 67.771912%)" offset="0.289063"/><stop stop-opacity="1" stop-color="rgb(0%, 50.889587%, 68.013%)" offset="0.292969"/><stop stop-opacity="1" stop-color="rgb(0%, 51.261902%, 68.255615%)" offset="0.296875"/><stop stop-opacity="1" stop-color="rgb(0%, 51.634216%, 68.49823%)" offset="0.300781"/><stop stop-opacity="1" stop-color="rgb(0%, 52.006531%, 68.740845%)" offset="0.304688"/><stop stop-opacity="1" stop-color="rgb(0%, 52.377319%, 68.981934%)" offset="0.308594"/><stop stop-opacity="1" stop-color="rgb(0%, 52.749634%, 69.224548%)" offset="0.3125"/><stop stop-opacity="1" stop-color="rgb(0%, 53.121948%, 69.467163%)" offset="0.316406"/><stop stop-opacity="1" stop-color="rgb(0%, 53.494263%, 69.709778%)" offset="0.320312"/><stop stop-opacity="1" stop-color="rgb(0%, 53.865051%, 69.950867%)" offset="0.324219"/><stop stop-opacity="1" stop-color="rgb(0%, 54.237366%, 70.193481%)" offset="0.328125"/><stop stop-opacity="1" stop-color="rgb(0%, 54.60968%, 70.436096%)" offset="0.332031"/><stop stop-opacity="1" stop-color="rgb(0%, 54.981995%, 70.678711%)" offset="0.335938"/><stop stop-opacity="1" stop-color="rgb(0%, 55.352783%, 70.9198%)" offset="0.339844"/><stop stop-opacity="1" stop-color="rgb(0%, 55.725098%, 71.162415%)" offset="0.34375"/><stop stop-opacity="1" stop-color="rgb(0%, 56.095886%, 71.405029%)" offset="0.347656"/><stop stop-opacity="1" stop-color="rgb(0%, 56.468201%, 71.647644%)" offset="0.351563"/><stop stop-opacity="1" stop-color="rgb(0%, 56.840515%, 71.888733%)" offset="0.355469"/><stop stop-opacity="1" stop-color="rgb(0%, 57.21283%, 72.131348%)" offset="0.359375"/><stop stop-opacity="1" stop-color="rgb(0%, 57.583618%, 72.373962%)" offset="0.363281"/><stop stop-opacity="1" stop-color="rgb(0%, 57.955933%, 72.616577%)" offset="0.367188"/><stop stop-opacity="1" stop-color="rgb(0%, 58.328247%, 72.857666%)" offset="0.371094"/><stop stop-opacity="1" stop-color="rgb(0%, 58.700562%, 73.100281%)" offset="0.375"/><stop stop-opacity="1" stop-color="rgb(0%, 59.07135%, 73.342896%)" offset="0.378906"/><stop stop-opacity="1" stop-color="rgb(0%, 59.443665%, 73.58551%)" offset="0.382813"/><stop stop-opacity="1" stop-color="rgb(0%, 59.815979%, 73.826599%)" offset="0.386719"/><stop stop-opacity="1" stop-color="rgb(0%, 60.188293%, 74.069214%)" offset="0.390625"/><stop stop-opacity="1" stop-color="rgb(0%, 60.559082%, 74.311829%)" offset="0.394531"/><stop stop-opacity="1" stop-color="rgb(0%, 60.931396%, 74.554443%)" offset="0.398438"/><stop stop-opacity="1" stop-color="rgb(0%, 61.303711%, 74.795532%)" offset="0.402344"/><stop stop-opacity="1" stop-color="rgb(0%, 61.676025%, 75.038147%)" offset="0.40625"/><stop stop-opacity="1" stop-color="rgb(0%, 62.046814%, 75.280762%)" offset="0.410156"/><stop stop-opacity="1" stop-color="rgb(0%, 62.419128%, 75.523376%)" offset="0.414062"/><stop stop-opacity="1" stop-color="rgb(0%, 62.791443%, 75.764465%)" offset="0.417969"/><stop stop-opacity="1" stop-color="rgb(0%, 63.163757%, 76.00708%)" offset="0.421875"/><stop stop-opacity="1" stop-color="rgb(0%, 63.534546%, 76.249695%)" offset="0.425781"/><stop stop-opacity="1" stop-color="rgb(0%, 63.90686%, 76.49231%)" offset="0.429688"/><stop stop-opacity="1" stop-color="rgb(0%, 64.279175%, 76.733398%)" offset="0.433594"/><stop stop-opacity="1" stop-color="rgb(0%, 64.651489%, 76.976013%)" offset="0.4375"/><stop stop-opacity="1" stop-color="rgb(0%, 65.022278%, 77.218628%)" offset="0.441406"/><stop stop-opacity="1" stop-color="rgb(0%, 65.394592%, 77.461243%)" offset="0.445312"/><stop stop-opacity="1" stop-color="rgb(0%, 65.766907%, 77.702332%)" offset="0.449219"/><stop stop-opacity="1" stop-color="rgb(0%, 66.139221%, 77.944946%)" offset="0.453125"/><stop stop-opacity="1" stop-color="rgb(0%, 66.51001%, 78.187561%)" offset="0.457031"/><stop stop-opacity="1" stop-color="rgb(0%, 66.882324%, 78.430176%)" offset="0.460938"/><stop stop-opacity="1" stop-color="rgb(0%, 67.253113%, 78.671265%)" offset="0.464844"/><stop stop-opacity="1" stop-color="rgb(0%, 67.625427%, 78.913879%)" offset="0.46875"/><stop stop-opacity="1" stop-color="rgb(0%, 67.997742%, 79.156494%)" offset="0.472656"/><stop stop-opacity="1" stop-color="rgb(0%, 68.370056%, 79.399109%)" offset="0.476563"/><stop stop-opacity="1" stop-color="rgb(0%, 68.740845%, 79.640198%)" offset="0.480469"/><stop stop-opacity="1" stop-color="rgb(0%, 69.113159%, 79.882812%)" offset="0.484375"/><stop stop-opacity="1" stop-color="rgb(0%, 69.485474%, 80.125427%)" offset="0.488281"/><stop stop-opacity="1" stop-color="rgb(0%, 69.857788%, 80.368042%)" offset="0.492188"/><stop stop-opacity="1" stop-color="rgb(0%, 70.228577%, 80.609131%)" offset="0.496094"/><stop stop-opacity="1" stop-color="rgb(0%, 70.600891%, 80.851746%)" offset="0.5"/><stop stop-opacity="1" stop-color="rgb(0%, 70.973206%, 81.09436%)" offset="0.503906"/><stop stop-opacity="1" stop-color="rgb(0%, 71.34552%, 81.336975%)" offset="0.507813"/><stop stop-opacity="1" stop-color="rgb(0%, 71.716309%, 81.578064%)" offset="0.511719"/><stop stop-opacity="1" stop-color="rgb(0%, 72.088623%, 81.820679%)" offset="0.515625"/><stop stop-opacity="1" stop-color="rgb(0%, 72.460938%, 82.063293%)" offset="0.519531"/><stop stop-opacity="1" stop-color="rgb(0%, 72.833252%, 82.305908%)" offset="0.523438"/><stop stop-opacity="1" stop-color="rgb(0%, 73.204041%, 82.546997%)" offset="0.527344"/><stop stop-opacity="1" stop-color="rgb(0%, 73.576355%, 82.789612%)" offset="0.53125"/><stop stop-opacity="1" stop-color="rgb(0%, 73.948669%, 83.032227%)" offset="0.535156"/><stop stop-opacity="1" stop-color="rgb(0%, 74.320984%, 83.274841%)" offset="0.539063"/><stop stop-opacity="1" stop-color="rgb(0%, 74.691772%, 83.51593%)" offset="0.542969"/><stop stop-opacity="1" stop-color="rgb(0%, 75.064087%, 83.758545%)" offset="0.546875"/><stop stop-opacity="1" stop-color="rgb(0%, 75.436401%, 84.00116%)" offset="0.550781"/><stop stop-opacity="1" stop-color="rgb(0%, 75.808716%, 84.243774%)" offset="0.554688"/><stop stop-opacity="1" stop-color="rgb(0%, 76.179504%, 84.484863%)" offset="0.558594"/><stop stop-opacity="1" stop-color="rgb(0%, 76.551819%, 84.727478%)" offset="0.5625"/><stop stop-opacity="1" stop-color="rgb(0%, 76.924133%, 84.970093%)" offset="0.566406"/><stop stop-opacity="1" stop-color="rgb(0%, 77.296448%, 85.212708%)" offset="0.570312"/><stop stop-opacity="1" stop-color="rgb(0%, 77.667236%, 85.453796%)" offset="0.574219"/><stop stop-opacity="1" stop-color="rgb(0%, 78.039551%, 85.696411%)" offset="0.578125"/><stop stop-opacity="1" stop-color="rgb(0%, 78.411865%, 85.939026%)" offset="0.582031"/><stop stop-opacity="1" stop-color="rgb(0%, 78.78418%, 86.181641%)" offset="0.585938"/><stop stop-opacity="1" stop-color="rgb(0%, 79.154968%, 86.422729%)" offset="0.589844"/><stop stop-opacity="1" stop-color="rgb(0%, 79.527283%, 86.665344%)" offset="0.59375"/><stop stop-opacity="1" stop-color="rgb(0%, 79.898071%, 86.907959%)" offset="0.597656"/><stop stop-opacity="1" stop-color="rgb(0%, 80.270386%, 87.150574%)" offset="0.601562"/><stop stop-opacity="1" stop-color="rgb(0%, 80.6427%, 87.391663%)" offset="0.605469"/><stop stop-opacity="1" stop-color="rgb(0%, 81.015015%, 87.634277%)" offset="0.609375"/><stop stop-opacity="1" stop-color="rgb(0%, 81.385803%, 87.876892%)" offset="0.613281"/><stop stop-opacity="1" stop-color="rgb(0%, 81.758118%, 88.119507%)" offset="0.617188"/><stop stop-opacity="1" stop-color="rgb(0%, 82.130432%, 88.360596%)" offset="0.621094"/><stop stop-opacity="1" stop-color="rgb(0%, 82.502747%, 88.60321%)" offset="0.625"/><stop stop-opacity="1" stop-color="rgb(0%, 82.873535%, 88.845825%)" offset="0.628906"/><stop stop-opacity="1" stop-color="rgb(0%, 83.24585%, 89.08844%)" offset="0.632813"/><stop stop-opacity="1" stop-color="rgb(0%, 83.618164%, 89.329529%)" offset="0.636719"/><stop stop-opacity="1" stop-color="rgb(0%, 83.990479%, 89.572144%)" offset="0.640625"/><stop stop-opacity="1" stop-color="rgb(0%, 84.361267%, 89.814758%)" offset="0.644531"/><stop stop-opacity="1" stop-color="rgb(0%, 84.733582%, 90.057373%)" offset="0.648438"/><stop stop-opacity="1" stop-color="rgb(0%, 85.105896%, 90.298462%)" offset="0.652344"/><stop stop-opacity="1" stop-color="rgb(0%, 85.47821%, 90.541077%)" offset="0.65625"/><stop stop-opacity="1" stop-color="rgb(0%, 85.848999%, 90.783691%)" offset="0.660156"/><stop stop-opacity="1" stop-color="rgb(0%, 86.221313%, 91.026306%)" offset="0.664063"/><stop stop-opacity="1" stop-color="rgb(0%, 86.593628%, 91.267395%)" offset="0.667969"/><stop stop-opacity="1" stop-color="rgb(0%, 86.965942%, 91.51001%)" offset="0.671875"/><stop stop-opacity="1" stop-color="rgb(0%, 87.336731%, 91.752625%)" offset="0.675781"/><stop stop-opacity="1" stop-color="rgb(0%, 87.709045%, 91.995239%)" offset="0.679688"/><stop stop-opacity="1" stop-color="rgb(0%, 88.08136%, 92.236328%)" offset="0.683594"/><stop stop-opacity="1" stop-color="rgb(0%, 88.453674%, 92.478943%)" offset="0.6875"/><stop stop-opacity="1" stop-color="rgb(0%, 88.824463%, 92.721558%)" offset="0.691406"/><stop stop-opacity="1" stop-color="rgb(0%, 89.196777%, 92.964172%)" offset="0.695312"/><stop stop-opacity="1" stop-color="rgb(0%, 89.569092%, 93.205261%)" offset="0.699219"/><stop stop-opacity="1" stop-color="rgb(0%, 89.941406%, 93.447876%)" offset="0.703125"/><stop stop-opacity="1" stop-color="rgb(0%, 90.312195%, 93.690491%)" offset="0.707031"/><stop stop-opacity="1" stop-color="rgb(0%, 90.684509%, 93.933105%)" offset="0.710938"/><stop stop-opacity="1" stop-color="rgb(0%, 91.055298%, 94.174194%)" offset="0.714844"/><stop stop-opacity="1" stop-color="rgb(0%, 91.427612%, 94.416809%)" offset="0.71875"/><stop stop-opacity="1" stop-color="rgb(0%, 91.799927%, 94.659424%)" offset="0.722656"/><stop stop-opacity="1" stop-color="rgb(0%, 92.172241%, 94.902039%)" offset="0.726562"/><stop stop-opacity="1" stop-color="rgb(0%, 92.54303%, 95.143127%)" offset="0.730469"/><stop stop-opacity="1" stop-color="rgb(0%, 92.915344%, 95.385742%)" offset="0.734375"/><stop stop-opacity="1" stop-color="rgb(0%, 93.287659%, 95.628357%)" offset="0.738281"/><stop stop-opacity="1" stop-color="rgb(0%, 93.659973%, 95.870972%)" offset="0.742188"/><stop stop-opacity="1" stop-color="rgb(0%, 94.030762%, 96.112061%)" offset="0.746094"/><stop stop-opacity="1" stop-color="rgb(0%, 94.403076%, 96.354675%)" offset="0.75"/><stop stop-opacity="1" stop-color="rgb(0%, 94.775391%, 96.59729%)" offset="0.753906"/><stop stop-opacity="1" stop-color="rgb(0%, 95.147705%, 96.839905%)" offset="0.757813"/><stop stop-opacity="1" stop-color="rgb(0%, 95.518494%, 97.080994%)" offset="0.761719"/><stop stop-opacity="1" stop-color="rgb(0%, 95.890808%, 97.323608%)" offset="0.765625"/><stop stop-opacity="1" stop-color="rgb(0%, 96.263123%, 97.566223%)" offset="0.769531"/><stop stop-opacity="1" stop-color="rgb(0%, 96.635437%, 97.808838%)" offset="0.773438"/><stop stop-opacity="1" stop-color="rgb(0%, 97.006226%, 98.049927%)" offset="0.777344"/><stop stop-opacity="1" stop-color="rgb(0%, 97.37854%, 98.292542%)" offset="0.78125"/><stop stop-opacity="1" stop-color="rgb(0%, 97.750854%, 98.535156%)" offset="0.785156"/><stop stop-opacity="1" stop-color="rgb(0%, 98.123169%, 98.777771%)" offset="0.789062"/><stop stop-opacity="1" stop-color="rgb(0%, 98.493958%, 99.01886%)" offset="0.792969"/><stop stop-opacity="1" stop-color="rgb(0%, 98.866272%, 99.261475%)" offset="0.796875"/><stop stop-opacity="1" stop-color="rgb(0%, 99.238586%, 99.504089%)" offset="0.800781"/><stop stop-opacity="1" stop-color="rgb(0%, 99.610901%, 99.746704%)" offset="0.804688"/><stop stop-opacity="1" stop-color="rgb(0%, 99.804688%, 99.873352%)" offset="0.8125"/><stop stop-opacity="1" stop-color="rgb(0%, 100%, 100%)" offset="0.875"/><stop stop-opacity="1" stop-color="rgb(0%, 100%, 100%)" offset="1"/></linearGradient><clipPath id="f8384eb5bc"><path d="M 84 64 L 357.695312 64 L 357.695312 328 L 84 328 Z M 84 64 " clip-rule="nonzero"/></clipPath><clipPath id="382fc663d4"><path d="M 172.480469 176.902344 C 172.480469 159.808594 158.234375 152.207031 146.835938 140.8125 C 141.136719 135.113281 141.136719 124.664062 146.835938 118.964844 L 174.378906 91.417969 C 180.078125 85.722656 190.527344 85.722656 196.226562 91.417969 L 223.769531 118.964844 C 234.21875 129.414062 240.867188 141.761719 247.515625 133.210938 C 250.367188 129.414062 252.265625 126.5625 252.265625 119.914062 C 252.265625 109.464844 243.71875 105.667969 237.066406 98.070312 C 233.269531 94.269531 233.269531 88.570312 237.066406 84.769531 L 254.164062 67.675781 C 257.964844 63.875 263.664062 63.875 267.460938 67.675781 L 284.558594 84.769531 C 288.359375 88.570312 288.359375 94.269531 284.558594 98.070312 C 277.910156 104.71875 268.414062 110.417969 268.414062 119.914062 C 268.414062 129.414062 277.910156 135.113281 284.558594 141.761719 C 288.359375 145.558594 288.359375 151.257812 284.558594 155.058594 L 267.460938 172.15625 C 263.664062 175.953125 257.964844 175.953125 254.164062 172.15625 C 239.917969 157.90625 231.371094 134.160156 218.070312 145.558594 C 207.625 154.109375 196.226562 163.605469 196.226562 176.902344 C 196.226562 193.050781 212.371094 202.550781 223.769531 213.949219 C 229.46875 219.644531 229.46875 230.09375 223.769531 235.792969 L 217.121094 242.441406 L 196.226562 263.339844 C 190.527344 269.039062 180.078125 269.039062 174.378906 263.339844 L 151.582031 240.542969 L 146.835938 235.792969 C 141.136719 230.09375 141.136719 219.644531 146.835938 213.949219 C 159.183594 201.601562 172.480469 194.949219 172.480469 176.902344 Z M 279.808594 205.398438 L 226.621094 152.207031 C 218.070312 158.859375 207.625 168.355469 207.625 176.902344 C 207.625 188.300781 224.71875 199.699219 232.320312 207.296875 C 241.816406 216.796875 241.816406 232.945312 232.320312 243.390625 L 204.773438 270.9375 C 195.277344 280.433594 179.128906 280.433594 168.679688 270.9375 L 141.136719 243.390625 C 131.636719 233.894531 131.636719 217.746094 141.136719 207.296875 C 149.683594 198.75 163.929688 190.203125 163.929688 176.902344 C 163.929688 166.457031 154.433594 158.859375 145.886719 152.207031 L 92.695312 205.398438 C 81.296875 216.796875 81.296875 234.84375 92.695312 246.242188 L 165.832031 319.378906 C 177.230469 330.777344 195.277344 330.777344 206.671875 319.378906 L 279.808594 246.242188 C 291.207031 234.84375 291.207031 216.796875 279.808594 205.398438 Z M 335.851562 108.515625 L 325.402344 98.070312 C 322.550781 95.21875 322.550781 90.46875 325.402344 87.621094 L 335.851562 77.171875 C 338.699219 74.324219 343.449219 74.324219 346.296875 77.171875 L 356.746094 87.621094 C 359.597656 90.46875 359.597656 95.21875 356.746094 98.070312 L 346.296875 108.515625 C 343.449219 111.367188 338.699219 111.367188 335.851562 108.515625 Z M 335.851562 108.515625 " clip-rule="evenodd"/></clipPath><linearGradient x1="0.116728" gradientTransform="matrix(0.000000000000005816, -94.98271, -94.98271, -0.000000000000005816, 357.696256, 328.876581)" y1="3.023272" x2="2.965" gradientUnits="userSpaceOnUse" y2="0.175" id="ce159466ed"><stop stop-opacity="1" stop-color="rgb(0%, 39.199829%, 60.398865%)" offset="0"/><stop stop-opacity="1" stop-color="rgb(0%, 39.199829%, 60.398865%)" offset="0.125"/><stop stop-opacity="1" stop-color="rgb(0%, 39.199829%, 60.398865%)" offset="0.15625"/><stop stop-opacity="1" stop-color="rgb(0%, 39.303589%, 60.467529%)" offset="0.171875"/><stop stop-opacity="1" stop-color="rgb(0%, 39.779663%, 60.777283%)" offset="0.175781"/><stop stop-opacity="1" stop-color="rgb(0%, 40.151978%, 61.019897%)" offset="0.179688"/><stop stop-opacity="1" stop-color="rgb(0%, 40.522766%, 61.260986%)" offset="0.183594"/><stop stop-opacity="1" stop-color="rgb(0%, 40.895081%, 61.503601%)" offset="0.1875"/><stop stop-opacity="1" stop-color="rgb(0%, 41.267395%, 61.746216%)" offset="0.191406"/><stop stop-opacity="1" stop-color="rgb(0%, 41.639709%, 61.988831%)" offset="0.195312"/><stop stop-opacity="1" stop-color="rgb(0%, 42.010498%, 62.229919%)" offset="0.199219"/><stop stop-opacity="1" stop-color="rgb(0%, 42.382812%, 62.472534%)" offset="0.203125"/><stop stop-opacity="1" stop-color="rgb(0%, 42.753601%, 62.713623%)" offset="0.207031"/><stop stop-opacity="1" stop-color="rgb(0%, 43.125916%, 62.956238%)" offset="0.210938"/><stop stop-opacity="1" stop-color="rgb(0%, 43.496704%, 63.198853%)" offset="0.214844"/><stop stop-opacity="1" stop-color="rgb(0%, 43.869019%, 63.441467%)" offset="0.21875"/><stop stop-opacity="1" stop-color="rgb(0%, 44.239807%, 63.682556%)" offset="0.222656"/><stop stop-opacity="1" stop-color="rgb(0%, 44.612122%, 63.925171%)" offset="0.226562"/><stop stop-opacity="1" stop-color="rgb(0%, 44.98291%, 64.16626%)" offset="0.230469"/><stop stop-opacity="1" stop-color="rgb(0%, 45.355225%, 64.408875%)" offset="0.234375"/><stop stop-opacity="1" stop-color="rgb(0%, 45.727539%, 64.649963%)" offset="0.238281"/><stop stop-opacity="1" stop-color="rgb(0%, 46.099854%, 64.892578%)" offset="0.242188"/><stop stop-opacity="1" stop-color="rgb(0%, 46.470642%, 65.135193%)" offset="0.246094"/><stop stop-opacity="1" stop-color="rgb(0%, 46.842957%, 65.377808%)" offset="0.25"/><stop stop-opacity="1" stop-color="rgb(0%, 47.213745%, 65.618896%)" offset="0.253906"/><stop stop-opacity="1" stop-color="rgb(0%, 47.58606%, 65.861511%)" offset="0.257812"/><stop stop-opacity="1" stop-color="rgb(0%, 47.956848%, 66.1026%)" offset="0.261719"/><stop stop-opacity="1" stop-color="rgb(0%, 48.329163%, 66.345215%)" offset="0.265625"/><stop stop-opacity="1" stop-color="rgb(0%, 48.699951%, 66.58783%)" offset="0.269531"/><stop stop-opacity="1" stop-color="rgb(0%, 49.072266%, 66.830444%)" offset="0.273438"/><stop stop-opacity="1" stop-color="rgb(0%, 49.443054%, 67.071533%)" offset="0.277344"/><stop stop-opacity="1" stop-color="rgb(0%, 49.815369%, 67.314148%)" offset="0.28125"/><stop stop-opacity="1" stop-color="rgb(0%, 50.187683%, 67.555237%)" offset="0.285156"/><stop stop-opacity="1" stop-color="rgb(0%, 50.559998%, 67.797852%)" offset="0.289062"/><stop stop-opacity="1" stop-color="rgb(0%, 50.930786%, 68.040466%)" offset="0.292969"/><stop stop-opacity="1" stop-color="rgb(0%, 51.303101%, 68.283081%)" offset="0.296875"/><stop stop-opacity="1" stop-color="rgb(0%, 51.673889%, 68.52417%)" offset="0.300781"/><stop stop-opacity="1" stop-color="rgb(0%, 52.046204%, 68.766785%)" offset="0.304688"/><stop stop-opacity="1" stop-color="rgb(0%, 52.416992%, 69.007874%)" offset="0.308594"/><stop stop-opacity="1" stop-color="rgb(0%, 52.789307%, 69.250488%)" offset="0.3125"/><stop stop-opacity="1" stop-color="rgb(0%, 53.160095%, 69.491577%)" offset="0.316406"/><stop stop-opacity="1" stop-color="rgb(0%, 53.53241%, 69.734192%)" offset="0.320312"/><stop stop-opacity="1" stop-color="rgb(0%, 53.903198%, 69.976807%)" offset="0.324219"/><stop stop-opacity="1" stop-color="rgb(0%, 54.275513%, 70.219421%)" offset="0.328125"/><stop stop-opacity="1" stop-color="rgb(0%, 54.647827%, 70.46051%)" offset="0.332031"/><stop stop-opacity="1" stop-color="rgb(0%, 55.020142%, 70.703125%)" offset="0.335938"/><stop stop-opacity="1" stop-color="rgb(0%, 55.39093%, 70.944214%)" offset="0.339844"/><stop stop-opacity="1" stop-color="rgb(0%, 55.763245%, 71.186829%)" offset="0.34375"/><stop stop-opacity="1" stop-color="rgb(0%, 56.134033%, 71.429443%)" offset="0.347656"/><stop stop-opacity="1" stop-color="rgb(0%, 56.506348%, 71.672058%)" offset="0.351562"/><stop stop-opacity="1" stop-color="rgb(0%, 56.877136%, 71.913147%)" offset="0.355469"/><stop stop-opacity="1" stop-color="rgb(0%, 57.249451%, 72.155762%)" offset="0.359375"/><stop stop-opacity="1" stop-color="rgb(0%, 57.620239%, 72.396851%)" offset="0.363281"/><stop stop-opacity="1" stop-color="rgb(0%, 57.992554%, 72.639465%)" offset="0.367188"/><stop stop-opacity="1" stop-color="rgb(0%, 58.363342%, 72.88208%)" offset="0.371094"/><stop stop-opacity="1" stop-color="rgb(0%, 58.735657%, 73.124695%)" offset="0.375"/><stop stop-opacity="1" stop-color="rgb(0%, 59.107971%, 73.365784%)" offset="0.378906"/><stop stop-opacity="1" stop-color="rgb(0%, 59.480286%, 73.608398%)" offset="0.382812"/><stop stop-opacity="1" stop-color="rgb(0%, 59.851074%, 73.849487%)" offset="0.386719"/><stop stop-opacity="1" stop-color="rgb(0%, 60.223389%, 74.092102%)" offset="0.390625"/><stop stop-opacity="1" stop-color="rgb(0%, 60.594177%, 74.334717%)" offset="0.394531"/><stop stop-opacity="1" stop-color="rgb(0%, 60.966492%, 74.577332%)" offset="0.398438"/><stop stop-opacity="1" stop-color="rgb(0%, 61.33728%, 74.81842%)" offset="0.402344"/><stop stop-opacity="1" stop-color="rgb(0%, 61.709595%, 75.061035%)" offset="0.40625"/><stop stop-opacity="1" stop-color="rgb(0%, 62.080383%, 75.302124%)" offset="0.410156"/><stop stop-opacity="1" stop-color="rgb(0%, 62.452698%, 75.544739%)" offset="0.414062"/><stop stop-opacity="1" stop-color="rgb(0%, 62.825012%, 75.785828%)" offset="0.417969"/><stop stop-opacity="1" stop-color="rgb(0%, 63.197327%, 76.028442%)" offset="0.421875"/><stop stop-opacity="1" stop-color="rgb(0%, 63.568115%, 76.271057%)" offset="0.425781"/><stop stop-opacity="1" stop-color="rgb(0%, 63.94043%, 76.513672%)" offset="0.429688"/><stop stop-opacity="1" stop-color="rgb(0%, 64.311218%, 76.754761%)" offset="0.433594"/><stop stop-opacity="1" stop-color="rgb(0%, 64.683533%, 76.997375%)" offset="0.4375"/><stop stop-opacity="1" stop-color="rgb(0%, 65.054321%, 77.238464%)" offset="0.441406"/><stop stop-opacity="1" stop-color="rgb(0%, 65.426636%, 77.481079%)" offset="0.445312"/><stop stop-opacity="1" stop-color="rgb(0%, 65.797424%, 77.723694%)" offset="0.449219"/><stop stop-opacity="1" stop-color="rgb(0%, 66.169739%, 77.966309%)" offset="0.453125"/><stop stop-opacity="1" stop-color="rgb(0%, 66.540527%, 78.207397%)" offset="0.457031"/><stop stop-opacity="1" stop-color="rgb(0%, 66.912842%, 78.450012%)" offset="0.460938"/><stop stop-opacity="1" stop-color="rgb(0%, 67.285156%, 78.691101%)" offset="0.464844"/><stop stop-opacity="1" stop-color="rgb(0%, 67.657471%, 78.933716%)" offset="0.46875"/><stop stop-opacity="1" stop-color="rgb(0%, 68.028259%, 79.176331%)" offset="0.472656"/><stop stop-opacity="1" stop-color="rgb(0%, 68.400574%, 79.418945%)" offset="0.476562"/><stop stop-opacity="1" stop-color="rgb(0%, 68.771362%, 79.660034%)" offset="0.480469"/><stop stop-opacity="1" stop-color="rgb(0%, 69.143677%, 79.902649%)" offset="0.484375"/><stop stop-opacity="1" stop-color="rgb(0%, 69.514465%, 80.143738%)" offset="0.488281"/><stop stop-opacity="1" stop-color="rgb(0%, 69.88678%, 80.386353%)" offset="0.492188"/><stop stop-opacity="1" stop-color="rgb(0%, 70.257568%, 80.627441%)" offset="0.496094"/><stop stop-opacity="1" stop-color="rgb(0%, 70.629883%, 80.870056%)" offset="0.5"/><stop stop-opacity="1" stop-color="rgb(0%, 71.000671%, 81.112671%)" offset="0.503906"/><stop stop-opacity="1" stop-color="rgb(0%, 71.372986%, 81.355286%)" offset="0.507812"/><stop stop-opacity="1" stop-color="rgb(0%, 71.7453%, 81.596375%)" offset="0.511719"/><stop stop-opacity="1" stop-color="rgb(0%, 72.117615%, 81.838989%)" offset="0.515625"/><stop stop-opacity="1" stop-color="rgb(0%, 72.488403%, 82.080078%)" offset="0.519531"/><stop stop-opacity="1" stop-color="rgb(0%, 72.860718%, 82.322693%)" offset="0.523437"/><stop stop-opacity="1" stop-color="rgb(0%, 73.231506%, 82.565308%)" offset="0.527344"/><stop stop-opacity="1" stop-color="rgb(0%, 73.603821%, 82.807922%)" offset="0.53125"/><stop stop-opacity="1" stop-color="rgb(0%, 73.974609%, 83.049011%)" offset="0.535156"/><stop stop-opacity="1" stop-color="rgb(0%, 74.346924%, 83.291626%)" offset="0.539062"/><stop stop-opacity="1" stop-color="rgb(0%, 74.717712%, 83.532715%)" offset="0.542969"/><stop stop-opacity="1" stop-color="rgb(0%, 75.090027%, 83.77533%)" offset="0.546875"/><stop stop-opacity="1" stop-color="rgb(0%, 75.460815%, 84.017944%)" offset="0.550781"/><stop stop-opacity="1" stop-color="rgb(0%, 75.83313%, 84.260559%)" offset="0.554688"/><stop stop-opacity="1" stop-color="rgb(0%, 76.205444%, 84.501648%)" offset="0.558594"/><stop stop-opacity="1" stop-color="rgb(0%, 76.577759%, 84.744263%)" offset="0.5625"/><stop stop-opacity="1" stop-color="rgb(0%, 76.948547%, 84.985352%)" offset="0.566406"/><stop stop-opacity="1" stop-color="rgb(0%, 77.320862%, 85.227966%)" offset="0.570312"/><stop stop-opacity="1" stop-color="rgb(0%, 77.69165%, 85.470581%)" offset="0.574219"/><stop stop-opacity="1" stop-color="rgb(0%, 78.063965%, 85.713196%)" offset="0.578125"/><stop stop-opacity="1" stop-color="rgb(0%, 78.434753%, 85.954285%)" offset="0.582031"/><stop stop-opacity="1" stop-color="rgb(0%, 78.807068%, 86.196899%)" offset="0.585938"/><stop stop-opacity="1" stop-color="rgb(0%, 79.177856%, 86.437988%)" offset="0.589844"/><stop stop-opacity="1" stop-color="rgb(0%, 79.550171%, 86.680603%)" offset="0.59375"/><stop stop-opacity="1" stop-color="rgb(0%, 79.922485%, 86.921692%)" offset="0.597656"/><stop stop-opacity="1" stop-color="rgb(0%, 80.2948%, 87.164307%)" offset="0.601563"/><stop stop-opacity="1" stop-color="rgb(0%, 80.665588%, 87.406921%)" offset="0.605469"/><stop stop-opacity="1" stop-color="rgb(0%, 81.037903%, 87.649536%)" offset="0.609375"/><stop stop-opacity="1" stop-color="rgb(0%, 81.408691%, 87.890625%)" offset="0.613281"/><stop stop-opacity="1" stop-color="rgb(0%, 81.781006%, 88.13324%)" offset="0.617188"/><stop stop-opacity="1" stop-color="rgb(0%, 82.151794%, 88.374329%)" offset="0.621094"/><stop stop-opacity="1" stop-color="rgb(0%, 82.524109%, 88.616943%)" offset="0.625"/><stop stop-opacity="1" stop-color="rgb(0%, 82.894897%, 88.859558%)" offset="0.628906"/><stop stop-opacity="1" stop-color="rgb(0%, 83.267212%, 89.102173%)" offset="0.632812"/><stop stop-opacity="1" stop-color="rgb(0%, 83.638%, 89.343262%)" offset="0.636719"/><stop stop-opacity="1" stop-color="rgb(0%, 84.010315%, 89.585876%)" offset="0.640625"/><stop stop-opacity="1" stop-color="rgb(0%, 84.382629%, 89.826965%)" offset="0.644531"/><stop stop-opacity="1" stop-color="rgb(0%, 84.754944%, 90.06958%)" offset="0.648437"/><stop stop-opacity="1" stop-color="rgb(0%, 85.125732%, 90.312195%)" offset="0.652344"/><stop stop-opacity="1" stop-color="rgb(0%, 85.498047%, 90.55481%)" offset="0.65625"/><stop stop-opacity="1" stop-color="rgb(0%, 85.868835%, 90.795898%)" offset="0.660156"/><stop stop-opacity="1" stop-color="rgb(0%, 86.24115%, 91.038513%)" offset="0.664062"/><stop stop-opacity="1" stop-color="rgb(0%, 86.611938%, 91.279602%)" offset="0.667969"/><stop stop-opacity="1" stop-color="rgb(0%, 86.984253%, 91.522217%)" offset="0.671875"/><stop stop-opacity="1" stop-color="rgb(0%, 87.355042%, 91.763306%)" offset="0.675781"/><stop stop-opacity="1" stop-color="rgb(0%, 87.727356%, 92.00592%)" offset="0.679688"/><stop stop-opacity="1" stop-color="rgb(0%, 88.098145%, 92.248535%)" offset="0.683594"/><stop stop-opacity="1" stop-color="rgb(0%, 88.470459%, 92.49115%)" offset="0.6875"/><stop stop-opacity="1" stop-color="rgb(0%, 88.842773%, 92.732239%)" offset="0.691406"/><stop stop-opacity="1" stop-color="rgb(0%, 89.215088%, 92.974854%)" offset="0.695312"/><stop stop-opacity="1" stop-color="rgb(0%, 89.585876%, 93.215942%)" offset="0.699219"/><stop stop-opacity="1" stop-color="rgb(0%, 89.958191%, 93.458557%)" offset="0.703125"/><stop stop-opacity="1" stop-color="rgb(0%, 90.328979%, 93.701172%)" offset="0.707031"/><stop stop-opacity="1" stop-color="rgb(0%, 90.701294%, 93.943787%)" offset="0.710938"/><stop stop-opacity="1" stop-color="rgb(0%, 91.072083%, 94.184875%)" offset="0.714844"/><stop stop-opacity="1" stop-color="rgb(0%, 91.444397%, 94.42749%)" offset="0.71875"/><stop stop-opacity="1" stop-color="rgb(0%, 91.815186%, 94.668579%)" offset="0.722656"/><stop stop-opacity="1" stop-color="rgb(0%, 92.1875%, 94.911194%)" offset="0.726563"/><stop stop-opacity="1" stop-color="rgb(0%, 92.558289%, 95.153809%)" offset="0.730469"/><stop stop-opacity="1" stop-color="rgb(0%, 92.930603%, 95.396423%)" offset="0.734375"/><stop stop-opacity="1" stop-color="rgb(0%, 93.302917%, 95.637512%)" offset="0.738281"/><stop stop-opacity="1" stop-color="rgb(0%, 93.675232%, 95.880127%)" offset="0.742188"/><stop stop-opacity="1" stop-color="rgb(0%, 94.046021%, 96.121216%)" offset="0.746094"/><stop stop-opacity="1" stop-color="rgb(0%, 94.418335%, 96.363831%)" offset="0.75"/><stop stop-opacity="1" stop-color="rgb(0%, 94.789124%, 96.606445%)" offset="0.753906"/><stop stop-opacity="1" stop-color="rgb(0%, 95.161438%, 96.84906%)" offset="0.757812"/><stop stop-opacity="1" stop-color="rgb(0%, 95.532227%, 97.090149%)" offset="0.761719"/><stop stop-opacity="1" stop-color="rgb(0%, 95.904541%, 97.332764%)" offset="0.765625"/><stop stop-opacity="1" stop-color="rgb(0%, 96.27533%, 97.573853%)" offset="0.769531"/><stop stop-opacity="1" stop-color="rgb(0%, 96.647644%, 97.816467%)" offset="0.773438"/><stop stop-opacity="1" stop-color="rgb(0%, 97.019958%, 98.057556%)" offset="0.777344"/><stop stop-opacity="1" stop-color="rgb(0%, 97.392273%, 98.300171%)" offset="0.78125"/><stop stop-opacity="1" stop-color="rgb(0%, 97.763062%, 98.542786%)" offset="0.785156"/><stop stop-opacity="1" stop-color="rgb(0%, 98.135376%, 98.7854%)" offset="0.789062"/><stop stop-opacity="1" stop-color="rgb(0%, 98.506165%, 99.026489%)" offset="0.792969"/><stop stop-opacity="1" stop-color="rgb(0%, 98.878479%, 99.269104%)" offset="0.796875"/><stop stop-opacity="1" stop-color="rgb(0%, 99.249268%, 99.510193%)" offset="0.800781"/><stop stop-opacity="1" stop-color="rgb(0%, 99.621582%, 99.752808%)" offset="0.804688"/><stop stop-opacity="1" stop-color="rgb(0%, 99.810791%, 99.876404%)" offset="0.8125"/><stop stop-opacity="1" stop-color="rgb(0%, 100%, 100%)" offset="0.875"/><stop stop-opacity="1" stop-color="rgb(0%, 100%, 100%)" offset="1"/></linearGradient></defs><g clip-path="url(#7e9540aec9)"><g clip-path="url(#14187812d9)"><g clip-path="url(#30dd56bd5a)"><g clip-path="url(#05b273d84e)"><path fill="#ffde59" d="M 320.742188 187.621094 C 301.5 170.980469 277.074219 164.429688 253.765625 167.363281 C 243.339844 168.675781 237.089844 179.683594 241.109375 189.386719 C 243.855469 196.019531 250.65625 200.175781 257.785156 199.285156 C 272.050781 197.507812 286.972656 201.402344 298.882812 211.320312 C 322.050781 230.613281 324.886719 265.273438 304.949219 288.164062 C 291.636719 303.449219 270.640625 309.886719 250.992188 305.015625 C 221.4375 297.683594 211.539062 266.726562 201.289062 241.601562 C 186.597656 205.585938 171.902344 169.574219 157.210938 133.5625 C 153.914062 125.484375 144.679688 121.640625 136.613281 124.992188 C 128.652344 128.296875 124.816406 137.382812 128.003906 145.382812 C 132.40625 156.417969 137.429688 170.300781 138.367188 172.566406 C 144.417969 187.164062 150.464844 201.757812 156.507812 216.355469 C 163.960938 234.347656 171.132812 252.460938 178.953125 270.296875 C 186.855469 288.324219 193.769531 306.101562 209.226562 318.972656 C 246.273438 349.824219 301.617188 344.222656 331.792969 306.175781 C 360.300781 270.226562 355.386719 217.582031 320.742188 187.621094 " fill-opacity="1" fill-rule="nonzero"/></g></g></g></g><g clip-path="url(#6ad35b3aad)"><g clip-path="url(#e5cae1b776)"><g clip-path="url(#e0e6b4e48b)"><g clip-path="url(#aad8346bfc)"><path fill="#ffde59" d="M 54.03125 189.707031 C 73.273438 206.34375 97.695312 212.894531 121.007812 209.960938 C 131.433594 208.652344 137.683594 197.644531 133.660156 187.941406 L 133.445312 187.410156 C 130.742188 180.894531 123.988281 177.164062 116.984375 178.039062 C 102.722656 179.816406 87.796875 175.921875 75.890625 166.003906 C 52.722656 146.710938 49.882812 112.050781 69.820312 89.160156 C 83.132812 73.875 104.132812 67.441406 123.777344 72.3125 C 153.335938 79.640625 163.234375 110.601562 173.484375 135.722656 C 188.175781 171.738281 202.867188 207.75 217.5625 243.761719 C 220.855469 251.839844 230.09375 255.683594 238.160156 252.335938 C 246.117188 249.027344 249.953125 239.945312 246.765625 231.941406 C 242.367188 220.90625 237.339844 207.023438 236.402344 204.757812 C 230.355469 190.160156 224.308594 175.566406 218.261719 160.96875 C 210.808594 142.976562 203.640625 124.863281 195.820312 107.027344 C 187.914062 89 181 71.222656 165.542969 58.351562 C 128.5 27.5 73.15625 33.101562 42.980469 71.152344 C 14.46875 107.097656 19.382812 159.746094 54.03125 189.707031 " fill-opacity="1" fill-rule="nonzero"/></g></g></g></g><g clip-path="url(#7a2124ad9b)"><g clip-path="url(#437998319d)"><g clip-path="url(#ad84fc2d49)"><g clip-path="url(#2af0ac9ddb)"><path fill="#ffde59" d="M 320.078125 186.847656 C 301.039062 203.71875 276.695312 210.566406 253.351562 207.914062 C 242.914062 206.730469 236.527344 195.800781 240.429688 186.046875 C 243.097656 179.382812 249.847656 175.144531 256.984375 175.945312 C 271.269531 177.550781 286.144531 173.472656 297.929688 163.414062 C 320.863281 143.839844 323.28125 109.148438 303.066406 86.5 C 289.570312 71.378906 268.496094 65.199219 248.90625 70.308594 C 219.441406 77.996094 209.921875 109.074219 199.976562 134.320312 C 185.722656 170.511719 171.46875 206.699219 157.214844 242.886719 C 154.019531 251.003906 144.828125 254.960938 136.722656 251.707031 C 128.722656 248.5 124.777344 239.460938 127.871094 231.421875 C 132.132812 220.332031 136.992188 206.390625 137.898438 204.113281 C 143.769531 189.445312 149.640625 174.777344 155.507812 160.109375 C 162.742188 142.027344 169.691406 123.828125 177.296875 105.894531 C 184.980469 87.777344 191.675781 69.917969 206.976562 56.859375 C 243.644531 25.558594 299.050781 30.488281 329.6875 68.167969 C 358.632812 103.765625 354.359375 156.46875 320.078125 186.847656 " fill-opacity="1" fill-rule="nonzero"/></g></g></g></g><g clip-path="url(#9de9f06db2)"><g clip-path="url(#4b06d62146)"><g clip-path="url(#b4b07bce73)"><g clip-path="url(#49412f2aae)"><path fill="#ffde59" d="M 53.363281 188 C 72.398438 171.128906 96.742188 164.28125 120.085938 166.933594 C 130.527344 168.117188 136.910156 179.046875 133.007812 188.800781 L 132.796875 189.332031 C 130.175781 195.878906 123.46875 199.691406 116.453125 198.902344 C 102.171875 197.296875 87.292969 201.375 75.507812 211.433594 C 52.574219 231.007812 50.15625 265.699219 70.371094 288.347656 C 83.871094 303.46875 104.945312 309.648438 124.53125 304.539062 C 153.996094 296.851562 163.515625 265.773438 173.460938 240.527344 C 187.714844 204.335938 201.96875 168.148438 216.222656 131.960938 C 219.421875 123.84375 228.609375 119.886719 236.714844 123.140625 C 244.714844 126.347656 248.660156 135.386719 245.570312 143.425781 C 241.304688 154.515625 236.449219 168.457031 235.539062 170.734375 C 229.667969 185.402344 223.796875 200.070312 217.929688 214.742188 C 210.695312 232.820312 203.746094 251.019531 196.144531 268.953125 C 188.460938 287.070312 181.761719 304.929688 166.460938 317.988281 C 129.796875 349.289062 74.386719 344.359375 43.75 306.679688 C 14.808594 271.082031 19.082031 218.378906 53.363281 188 " fill-opacity="1" fill-rule="nonzero"/></g></g></g></g><g clip-path="url(#93d31b75d3)"><g clip-path="url(#9c8ebe5e81)"><path fill="url(#94adbc87ad)" d="M 15.972656 330.777344 L 290.472656 330.777344 L 290.472656 63.875 L 15.972656 63.875 Z M 15.972656 330.777344 " fill-rule="nonzero"/></g></g><g clip-path="url(#f8384eb5bc)"><g clip-path="url(#382fc663d4)"><path fill="url(#ce159466ed)" d="M 357.695312 330.777344 L 83.523438 330.777344 L 83.523438 63.875 L 357.695312 63.875 Z M 357.695312 330.777344 " fill-rule="nonzero"/></g></g></svg>